HIERARCHY
ROOT Hips
{
 OFFSET 0.000000 0.000000 0.000000
 CHANNELS 6 Xposition Yposition Zposition Yrotation Xrotation Zrotation
 JOINT Chest
 {
  OFFSET 0.000000 9.588913 -0.003946
  CHANNELS 3 Yrotation Xrotation Zrotation
  JOINT Chest2
  {
   OFFSET 0.000000 9.541882 0.008053
   CHANNELS 3 Yrotation Xrotation Zrotation
   JOINT Chest3
   {
    OFFSET 0.000000 9.501360 0.000000
    CHANNELS 3 Yrotation Xrotation Zrotation
    JOINT Chest4
    {
     OFFSET 0.000000 9.491660 0.000000
     CHANNELS 3 Yrotation Xrotation Zrotation
     JOINT Neck
     {
      OFFSET 0.000000 14.331917 0.000000
      CHANNELS 3 Yrotation Xrotation Zrotation
      JOINT Head
      {
       OFFSET 0.000000 8.884799 0.017034
       CHANNELS 3 Yrotation Xrotation Zrotation
       End Site
       {
        OFFSET 0.000000 16.896195 0.008993
       }
      }
     }
     JOINT RightCollar
     {
      OFFSET -2.923010 9.499495 0.000000
      CHANNELS 3 Yrotation Xrotation Zrotation
      JOINT RightShoulder
      {
       OFFSET -13.795216 0.000000 0.000000
       CHANNELS 3 Yrotation Xrotation Zrotation
       JOINT RightElbow
       {
        OFFSET -30.272209 0.000000 0.000000
        CHANNELS 3 Yrotation Xrotation Zrotation
        JOINT RightWrist
        {
         OFFSET -24.478199 0.000000 0.000000
         CHANNELS 3 Yrotation Xrotation Zrotation
         End Site
         {
          OFFSET -18.090752 0.000000 0.000000
         }
        }
       }
      }
     }
     JOINT LeftCollar
     {
      OFFSET 2.923010 9.499495 0.000000
      CHANNELS 3 Yrotation Xrotation Zrotation
      JOINT LeftShoulder
      {
       OFFSET 13.795216 0.000000 0.000000
       CHANNELS 3 Yrotation Xrotation Zrotation
       JOINT LeftElbow
       {
        OFFSET 30.272209 0.000000 0.000000
        CHANNELS 3 Yrotation Xrotation Zrotation
        JOINT LeftWrist
        {
         OFFSET 24.478199 0.000000 0.000000
         CHANNELS 3 Yrotation Xrotation Zrotation
         End Site
         {
          OFFSET 18.090752 0.000000 0.000000
         }
        }
       }
      }
     }
    }
   }
  }
 }
 JOINT RightHip
 {
  OFFSET -7.826875 0.019532 0.001973
  CHANNELS 3 Yrotation Xrotation Zrotation
  JOINT RightKnee
  {
   OFFSET 0.000000 -40.546152 -0.001885
   CHANNELS 3 Yrotation Xrotation Zrotation
   JOINT RightAnkle
   {
    OFFSET 0.000000 -39.417092 -0.003189
    CHANNELS 3 Yrotation Xrotation Zrotation
    JOINT RightToe
    {
     OFFSET 0.000000 -7.579396 17.243563
     CHANNELS 3 Yrotation Xrotation Zrotation
     End Site
     {
      OFFSET 0.000000 -1.500329 6.694466
     }
    }
   }
  }
 }
 JOINT LeftHip
 {
  OFFSET 7.826875 0.019532 0.001973
  CHANNELS 3 Yrotation Xrotation Zrotation
  JOINT LeftKnee
  {
   OFFSET 0.000000 -40.546152 -0.001885
   CHANNELS 3 Yrotation Xrotation Zrotation
   JOINT LeftAnkle
   {
    OFFSET 0.000000 -39.417092 -0.003189
    CHANNELS 3 Yrotation Xrotation Zrotation
    JOINT LeftToe
    {
     OFFSET 0.000000 -7.579396 17.243563
     CHANNELS 3 Yrotation Xrotation Zrotation
     End Site
     {
      OFFSET 0.000000 -1.500329 6.694466
     }
    }
   }
  }
 }
}
MOTION
Frames: 11
Frame Time: 0.008333
0.000000 87.345680 0.000000 0.000000 -5.767889 0.000000 0.000000 11.653876 0.000000 0.000000 -5.885988 0.000000 0.000000 -0.000000 0.000000 0.000000 -0.000000 0.000000 0.000000 12.528808 0.000000 0.000000 0.711711 0.000000 0.000000 -0.000000 0.000000 0.000000 -0.000000 0.000000 2.309063 -0.000000 0.000000 -2.309063 -0.000000 -0.000000 0.000000 -0.000000 0.000000 0.000000 0.000000 0.000000 -2.309063 0.000000 0.000000 2.309063 -0.000000 0.000000 0.000000 8.520374 0.000000 0.000000 1.905768 0.000000 -0.000000 -4.658254 0.000000 0.000000 -0.000000 0.000000 0.000000 8.520374 0.000000 0.000000 1.905768 0.000000 -0.000000 -4.658254 0.000000 0.000000 -0.000000 0.000000
8.412123 89.229580 16.729469 -52.032062 -6.152528 0.543130 3.718796 3.850543 0.771097 2.132944 2.189294 0.540746 2.669890 2.733345 0.688775 2.132944 2.189294 0.540747 3.967655 25.450429 -0.656362 4.487205 2.054248 -1.623409 -5.912907 4.394462 -2.160981 -2.342283 -3.188788 90.643619 1.187924 -13.251368 -0.570034 -1.869783 -20.916932 1.634228 -8.108526 2.465859 -1.882956 -0.092456 -8.013962 -91.390039 -1.741933 1.018578 -0.577634 0.147903 3.308353 -2.291964 -6.098809 5.284959 -5.430042 20.778955 0.920023 -1.797699 16.408259 -3.325344 2.760238 0.072072 -0.233696 0.005385 12.256267 3.978043 1.324079 8.563181 2.905477 -0.276684 11.680658 -3.584931 -0.022675 -0.000511 0.534248 0.029067
8.467463 89.230223 16.754396 -52.040334 -6.141973 0.486491 3.755716 3.866954 0.712721 2.153234 2.197362 0.528890 2.695202 2.743468 0.674123 2.153235 2.197363 0.528892 4.068863 25.326437 -0.632452 4.591262 1.905374 -1.620412 -5.916181 4.402238 -2.080696 -2.191020 -3.181712 90.777670 1.004929 -13.348205 -0.617934 -1.907119 -21.067025 1.733913 -8.107873 2.475593 -1.881596 -0.005743 -7.991229 -91.320609 -1.709817 0.999792 -0.561949 0.181704 3.321887 -2.311783 -6.011924 5.187154 -5.379132 20.756661 1.071726 -1.784214 16.377959 -3.347497 2.779430 0.066547 -0.274193 0.007838 12.284671 4.008670 1.365661 8.555944 2.799678 -0.358812 11.672677 -3.627408 0.072117 -0.003842 0.572554 0.024304
8.531521 89.231313 16.781800 -52.053203 -6.131149 0.408263 3.791576 3.882716 0.671776 2.172480 2.205768 0.518235 2.719216 2.754008 0.660967 2.172481 2.205768 0.518236 4.174440 25.204013 -0.608589 4.700173 1.759111 -1.618506 -5.911004 4.406279 -2.002182 -2.039673 -3.165610 90.908934 0.874288 -13.578378 -0.663106 -1.945617 -21.263757 1.848733 -8.105016 2.487185 -1.883710 0.090409 -7.963877 -91.250185 -1.672813 0.986552 -0.536567 0.205907 3.330322 -2.316151 -5.922428 5.074853 -5.314736 20.731227 1.243879 -1.754776 16.352024 -3.383740 2.797150 0.059673 -0.307210 0.006513 12.303717 4.024660 1.422499 8.576944 2.704556 -0.438887 11.657085 -3.645759 0.169018 -0.003727 0.584560 0.022618
8.603457 89.232921 16.812808 -52.069351 -6.122817 0.326714 3.825744 3.900564 0.632163 2.190667 2.215087 0.508138 2.741910 2.765689 0.648510 2.190667 2.215087 0.508140 4.282733 25.083219 -0.584491 4.812056 1.615432 -1.617003 -5.901154 4.410737 -1.928673 -1.904764 -3.143097 91.044089 0.798906 -13.943846 -0.692509 -1.972963 -21.476007 1.953238 -8.105359 2.499371 -1.884570 0.197656 -7.929933 -91.184532 -1.633753 0.976187 -0.500283 0.220356 3.326958 -2.303488 -5.828806 4.947848 -5.257554 20.701329 1.436096 -1.711248 16.344541 -3.424708 2.816639 0.054046 -0.343984 0.002569 12.313468 4.034097 1.481295 8.615990 2.626173 -0.519688 11.625402 -3.670625 0.263512 -0.001680 0.594529 0.025033
8.680849 89.234919 16.846014 -52.087319 -6.116735 0.243898 3.857171 3.920003 0.592442 2.207536 2.224897 0.498208 2.762959 2.777986 0.636257 2.207536 2.224897 0.498209 4.392677 24.964462 -0.559399 4.925572 1.474745 -1.614826 -5.896514 4.423247 -1.862672 -1.790043 -3.120658 91.187641 0.778660 -14.403649 -0.704845 -1.959560 -21.684191 2.014990 -8.108233 2.513806 -1.881684 0.312152 -7.889264 -91.125300 -1.589589 0.963053 -0.453516 0.216630 3.314640 -2.270773 -5.729432 4.810368 -5.203898 20.665388 1.647141 -1.657337 16.338304 -3.471813 2.836217 0.049481 -0.382603 -0.003838 12.307901 4.035466 1.541017 8.665780 2.567414 -0.602779 11.594735 -3.700887 0.355947 0.001864 0.600901 0.030164
8.761637 89.237022 16.879811 -52.104904 -6.110164 0.160885 3.883990 3.939001 0.551236 2.222529 2.234244 0.488442 2.781661 2.789707 0.624197 2.222529 2.234245 0.488443 4.503786 24.848067 -0.533012 5.040130 1.337403 -1.611535 -5.897951 4.450884 -1.803723 -1.712292 -3.107411 91.337975 0.808151 -14.888958 -0.708363 -1.872279 -21.869734 2.006762 -8.108746 2.532675 -1.875839 0.424868 -7.841958 -91.070616 -1.539247 0.940454 -0.399495 0.188770 3.292073 -2.220027 -5.623883 4.663070 -5.150256 20.625235 1.875806 -1.596347 16.320654 -3.526544 2.853472 0.045898 -0.421745 -0.011206 12.272249 4.024059 1.597821 8.728002 2.530835 -0.687501 11.587975 -3.735967 0.446126 0.006173 0.603455 0.037665
8.843865 89.238886 16.913127 -52.118510 -6.102371 0.078880 3.903560 3.957762 0.509394 2.234446 2.243134 0.478683 2.796517 2.800861 0.612124 2.234447 2.243135 0.478684 4.615461 24.732914 -0.506802 5.155399 1.202021 -1.608596 -5.897197 4.491813 -1.754035 -1.697570 -3.109426 91.491163 0.876534 -15.326295 -0.711846 -1.696424 -22.021755 1.910809 -8.105223 2.553883 -1.869538 0.532945 -7.785530 -91.018404 -1.488121 0.908982 -0.342354 0.142104 3.254557 -2.155404 -5.525616 4.501909 -5.096787 20.596148 2.126586 -1.536725 16.309841 -3.594372 2.870127 0.046177 -0.462259 -0.016327 12.192060 3.998399 1.647936 8.803644 2.517756 -0.769839 11.618425 -3.775591 0.529551 0.010878 0.602757 0.048338
8.926020 89.240109 16.945156 -52.128866 -6.092041 -0.000585 3.914952 3.976683 0.467557 2.242758 2.251977 0.468791 2.806865 2.811963 0.599863 2.242759 2.251977 0.468792 4.728795 24.616971 -0.482183 5.272891 1.066211 -1.607808 -5.891474 4.540475 -1.714929 -1.750745 -3.128756 91.643036 0.971136 -15.665628 -0.724956 -1.441810 -22.144430 1.731083 -8.096334 2.573699 -1.863890 0.635241 -7.716617 -90.966492 -1.442201 0.868011 -0.286478 0.082552 3.205229 -2.078701 -5.454270 4.323171 -5.037672 20.594644 2.408445 -1.487235 16.296857 -3.681649 2.886586 0.050211 -0.503004 -0.019667 12.068174 3.959462 1.689931 8.886552 2.525106 -0.845853 11.684282 -3.818471 0.603731 0.015205 0.599967 0.060237
9.006975 89.240243 16.974969 -52.137650 -6.075960 -0.078083 3.919086 3.994386 0.424845 2.248276 2.260487 0.459265 2.813719 2.822651 0.588040 2.248276 2.260488 0.459265 4.843583 24.499514 -0.459934 5.392559 0.929100 -1.609972 -5.885460 4.594734 -1.682670 -1.862180 -3.165739 91.786391 1.082484 -15.883593 -0.752891 -1.129599 -22.246389 1.489509 -8.082547 2.590316 -1.858610 0.733366 -7.633965 -90.912713 -1.401198 0.815657 -0.234531 0.013603 3.148295 -1.992799 -5.420536 4.122139 -4.964844 20.622808 2.728938 -1.454980 16.277417 -3.792602 2.904443 0.057682 -0.543369 -0.022989 11.909779 3.907510 1.730499 8.969898 2.549642 -0.916440 11.758790 -3.864978 0.668728 0.015894 0.597557 0.069055
9.085599 89.238928 17.002424 -52.146833 -6.054116 -0.153630 3.916915 4.011239 0.381635 2.251236 2.268548 0.449684 2.817375 2.832781 0.576131 2.251236 2.268548 0.449684 4.958614 24.381366 -0.440952 5.513298 0.791650 -1.615790 -5.876734 4.656919 -1.651554 -2.020127 -3.225640 91.911223 1.202234 -15.980185 -0.793950 -0.783218 -22.327176 1.207794 -8.064027 2.604418 -1.855515 0.833228 -7.541290 -90.853667 -1.362771 0.757082 -0.188113 -0.062767 3.082888 -1.905170 -5.421395 3.894000 -4.876474 20.671939 3.096479 -1.444559 16.275060 -3.931888 2.927042 0.070432 -0.584910 -0.026536 11.733813 3.844078 1.770960 9.049650 2.588179 -0.983231 11.836323 -3.916223 0.730112 0.013797 0.597343 0.072233
